<svg xmlns="http://www.w3.org/2000/svg" xmlns:xlink="http://www.w3.org/1999/xlink" width="500" zoomAndPan="magnify" viewBox="0 0 375 69.749997" height="93" preserveAspectRatio="xMidYMid meet" version="1.0"><defs><g/><clipPath id="id1"><path d="M 0.667969 4 L 39 4 L 39 48 L 0.667969 48 Z M 0.667969 4 " clip-rule="nonzero"/></clipPath></defs><g clip-path="url(#id1)"><g fill="#000000" fill-opacity="1"><g transform="translate(0.713557, 47.395479)"><g><path d="M 17.261719 -21.21875 C 30.328125 -21.9375 34.285156 -26.671875 34.285156 -32.246094 C 34.285156 -41.058594 24.515625 -43.15625 -0.0585938 -43.15625 L -0.0585938 -42.074219 C 17.023438 -42.074219 29.25 -41.058594 29.25 -31.585938 C 29.25 -27.453125 27.03125 -23.496094 17.140625 -21.9375 Z M 8.210938 -38.238281 C 8.390625 -35.0625 8.632812 -31.765625 8.632812 -21.335938 L 8.632812 -15.285156 C 8.632812 -4.496094 8.269531 -2.636719 7.851562 -1.796875 C 6.894531 -1.257812 5.214844 -1.078125 3.175781 -1.078125 L -0.0585938 -1.078125 L -0.0585938 0 C 5.15625 0 8.152344 -0.238281 10.789062 -0.238281 C 13.1875 -0.238281 15.523438 0 20.558594 0 C 33.863281 0 37.460938 -7.074219 37.460938 -12.105469 C 37.460938 -17.023438 33.984375 -21.039062 26.730469 -21.039062 L 26.550781 -20.5 C 31.40625 -19.300781 32.425781 -15.34375 32.425781 -12.105469 C 32.425781 -6.472656 29.070312 -1.078125 18.101562 -1.078125 C 16.125 -1.078125 14.445312 -1.257812 13.484375 -1.796875 C 13.066406 -2.636719 12.707031 -4.496094 12.707031 -15.761719 L 12.707031 -21.398438 C 12.707031 -29.308594 12.765625 -32.484375 12.945312 -35.664062 Z M 8.210938 -38.238281 "/></g></g></g></g><g fill="#000000" fill-opacity="1"><g transform="translate(41.22791, 47.395479)"><g><path d="M 10.847656 -26.671875 C 12.347656 -27.273438 14.023438 -27.632812 15.644531 -27.632812 C 20.558594 -27.632812 23.253906 -24.753906 23.253906 -19 C 23.253906 -16.542969 23.074219 -11.328125 23.074219 -8.453125 C 23.074219 -2.9375 23.375 -0.898438 23.796875 0.839844 C 26.851562 0.359375 30.449219 0 34.105469 0 L 34.105469 -1.078125 L 32.664062 -1.078125 C 30.628906 -1.078125 29.128906 -1.257812 28.171875 -1.796875 C 27.75 -2.636719 27.210938 -4.496094 27.210938 -12.886719 C 27.210938 -14.386719 27.390625 -17.5625 27.390625 -20.257812 C 27.390625 -26.132812 23.914062 -29.007812 16.960938 -29.007812 C 12.648438 -29.007812 8.511719 -27.453125 6.171875 -26.132812 L 7.433594 -18.28125 L 8.453125 -18.28125 Z M 18.820312 -16.125 L 4.613281 -11.808594 L 4.675781 -11.507812 C 7.074219 -10.609375 8.269531 -8.992188 8.269531 -6.652344 C 8.269531 -2.757812 5.632812 -1.078125 -0.898438 -1.078125 L -0.898438 0 C 9.949219 0 12.46875 -3.476562 12.46875 -7.792969 C 12.46875 -9.289062 11.988281 -10.789062 11.089844 -11.988281 L 19.121094 -15.34375 Z M 18.820312 -16.125 "/></g></g></g><g fill="#000000" fill-opacity="1"><g transform="translate(75.269545, 47.395479)"><g><path d="M 10.910156 -20.199219 C 10.910156 -23.4375 14.386719 -26.671875 19.960938 -26.671875 C 25.292969 -26.671875 27.511719 -23.617188 27.511719 -17.980469 C 27.511719 -11.507812 27.273438 -6.652344 27.273438 -4.613281 C 27.273438 -2.335938 27.511719 -0.359375 27.929688 0.839844 C 30.929688 0.359375 34.523438 0 37.222656 0 L 37.222656 -1.078125 C 34.765625 -1.078125 33.144531 -1.320312 32.1875 -1.796875 C 31.945312 -2.277344 31.585938 -3.238281 31.585938 -5.753906 C 31.585938 -9.890625 31.707031 -14.925781 31.707031 -19.417969 C 31.707031 -26.371094 27.632812 -29.007812 22.117188 -29.007812 C 17.441406 -29.007812 13.125 -27.089844 10.847656 -24.214844 L 10.789062 -24.273438 C 10.730469 -25.832031 10.128906 -27.210938 8.390625 -27.691406 C 6.53125 -28.230469 4.675781 -28.230469 -0.0585938 -28.230469 L -0.0585938 -27.152344 C 2.816406 -27.152344 4.554688 -27.152344 5.574219 -26.3125 C 6.714844 -25.355469 6.832031 -23.316406 6.832031 -19.417969 L 6.832031 -13.84375 C 6.832031 -4.496094 6.472656 -2.636719 6.054688 -1.796875 C 5.09375 -1.257812 3.417969 -1.078125 1.378906 -1.078125 L -0.0585938 -1.078125 L -0.0585938 0 C 3.597656 0 6.292969 -0.238281 8.992188 -0.238281 C 11.6875 -0.238281 14.324219 0 17.082031 0 L 17.082031 -1.078125 C 14.324219 -1.078125 12.648438 -1.257812 11.6875 -1.796875 C 11.269531 -2.636719 10.910156 -4.496094 10.910156 -14.085938 Z M 10.910156 -20.199219 "/></g></g></g><g fill="#000000" fill-opacity="1"><g transform="translate(112.427675, 47.395479)"><g/></g></g><g fill="#000000" fill-opacity="1"><g transform="translate(130.407422, 47.395479)"><g><path d="M 18.042969 -38.238281 C 18.222656 -35.0625 18.460938 -31.765625 18.460938 -24.753906 L 18.460938 -14.386719 C 18.460938 -4.496094 18.101562 -2.636719 17.679688 -1.796875 C 16.722656 -1.257812 15.042969 -1.078125 13.007812 -1.078125 L 11.566406 -1.078125 L 11.566406 0 C 15.222656 0 17.921875 -0.238281 20.617188 -0.238281 C 23.316406 -0.238281 26.011719 0 29.429688 0 L 29.429688 -1.078125 L 27.992188 -1.078125 C 25.953125 -1.078125 24.273438 -1.257812 23.316406 -1.796875 C 22.894531 -2.636719 22.535156 -4.496094 22.535156 -13.425781 L 22.535156 -24.15625 C 22.535156 -29.308594 22.597656 -32.484375 22.777344 -35.664062 Z M 6.714844 -41.117188 C 11.027344 -41.777344 16.003906 -42.074219 36.382812 -42.074219 L 36.382812 -43.15625 L 2.398438 -43.15625 L 3.355469 -32.425781 L 4.136719 -32.425781 Z M 6.714844 -41.117188 "/></g></g></g><g fill="#000000" fill-opacity="1"><g transform="translate(166.726486, 47.395479)"><g><path d="M 6.59375 -17.980469 C 6.59375 -4.496094 6.234375 -2.636719 5.8125 -1.796875 C 4.855469 -1.257812 3.175781 -1.078125 1.140625 -1.078125 L -0.300781 -1.078125 L -0.300781 0 C 3.355469 0 6.054688 -0.238281 8.75 -0.238281 C 11.449219 -0.238281 14.085938 0 16.902344 0 L 16.902344 -1.078125 C 14.085938 -1.078125 12.40625 -1.257812 11.449219 -1.796875 C 11.027344 -2.636719 10.667969 -4.496094 10.667969 -14.085938 L 10.667969 -20.199219 C 10.667969 -23.4375 14.144531 -26.671875 19.71875 -26.671875 C 25.054688 -26.671875 27.273438 -23.617188 27.273438 -17.980469 C 27.273438 -11.507812 27.03125 -6.652344 27.03125 -4.613281 C 27.03125 -2.335938 27.273438 -0.359375 27.691406 0.839844 C 30.6875 0.359375 34.285156 0 36.980469 0 L 36.980469 -1.078125 C 34.523438 -1.078125 32.90625 -1.320312 31.945312 -1.796875 C 31.707031 -2.277344 31.347656 -3.238281 31.347656 -5.753906 C 31.347656 -9.890625 31.46875 -14.925781 31.46875 -19.417969 C 31.46875 -26.371094 27.390625 -29.007812 21.9375 -29.007812 C 17.203125 -29.007812 12.886719 -26.910156 10.730469 -24.273438 L 10.667969 -24.335938 L 10.667969 -30.867188 C 10.667969 -39.320312 10.910156 -41.476562 11.089844 -43.453125 C 8.453125 -43.214844 3.355469 -43.15625 -0.300781 -43.15625 L -0.300781 -42.074219 L 1.140625 -42.074219 C 3.175781 -42.074219 4.855469 -41.894531 5.8125 -41.355469 C 6.234375 -40.519531 6.59375 -38.660156 6.59375 -26.191406 Z M 6.59375 -17.980469 "/></g></g></g><g fill="#000000" fill-opacity="1"><g transform="translate(203.644889, 47.395479)"><g><path d="M 10.847656 -26.671875 C 12.347656 -27.273438 14.023438 -27.632812 15.644531 -27.632812 C 20.558594 -27.632812 23.253906 -24.753906 23.253906 -19 C 23.253906 -16.542969 23.074219 -11.328125 23.074219 -8.453125 C 23.074219 -2.9375 23.375 -0.898438 23.796875 0.839844 C 26.851562 0.359375 30.449219 0 34.105469 0 L 34.105469 -1.078125 L 32.664062 -1.078125 C 30.628906 -1.078125 29.128906 -1.257812 28.171875 -1.796875 C 27.75 -2.636719 27.210938 -4.496094 27.210938 -12.886719 C 27.210938 -14.386719 27.390625 -17.5625 27.390625 -20.257812 C 27.390625 -26.132812 23.914062 -29.007812 16.960938 -29.007812 C 12.648438 -29.007812 8.511719 -27.453125 6.171875 -26.132812 L 7.433594 -18.28125 L 8.453125 -18.28125 Z M 18.820312 -16.125 L 4.613281 -11.808594 L 4.675781 -11.507812 C 7.074219 -10.609375 8.269531 -8.992188 8.269531 -6.652344 C 8.269531 -2.757812 5.632812 -1.078125 -0.898438 -1.078125 L -0.898438 0 C 9.949219 0 12.46875 -3.476562 12.46875 -7.792969 C 12.46875 -9.289062 11.988281 -10.789062 11.089844 -11.988281 L 19.121094 -15.34375 Z M 18.820312 -16.125 "/></g></g></g><g fill="#000000" fill-opacity="1"><g transform="translate(237.686524, 47.395479)"><g><path d="M -0.0585938 -27.152344 L 1.378906 -27.152344 C 3.417969 -27.152344 5.09375 -26.972656 6.054688 -26.433594 C 6.472656 -25.59375 6.832031 -23.734375 6.832031 -15.34375 L 6.832031 -12.40625 C 6.832031 -4.496094 6.472656 -2.636719 6.054688 -1.796875 C 5.09375 -1.257812 3.417969 -1.078125 1.378906 -1.078125 L -0.0585938 -1.078125 L -0.0585938 0 C 3.597656 0 6.292969 -0.238281 8.992188 -0.238281 C 11.6875 -0.238281 14.386719 0 17.800781 0 L 17.800781 -1.078125 L 16.363281 -1.078125 C 14.324219 -1.078125 12.648438 -1.257812 11.6875 -1.796875 C 11.269531 -2.636719 10.910156 -4.496094 10.910156 -12.46875 L 10.910156 -15.34375 C 10.910156 -24.394531 11.148438 -26.550781 11.328125 -28.53125 C 8.691406 -28.289062 3.597656 -28.230469 -0.0585938 -28.230469 Z M 11.925781 -37.941406 C 11.207031 -39.320312 10.007812 -40.699219 8.929688 -41.417969 L 8.691406 -41.417969 C 7.613281 -40.699219 6.414062 -39.320312 5.695312 -37.941406 L 5.695312 -37.699219 C 6.414062 -36.320312 7.613281 -34.945312 8.691406 -34.222656 L 8.929688 -34.222656 C 10.007812 -34.945312 11.207031 -36.320312 11.925781 -37.699219 Z M 11.925781 -37.941406 "/></g></g></g><g fill="#000000" fill-opacity="1"><g transform="translate(255.00699, 47.395479)"><g/></g></g><g fill="#000000" fill-opacity="1"><g transform="translate(272.986737, 47.395479)"><g><path d="M 27.152344 -33.445312 L 28.050781 -33.445312 L 28.769531 -42.675781 C 26.074219 -43.273438 21.699219 -43.875 18.28125 -43.875 C 10.308594 -43.875 3.535156 -39.917969 3.535156 -32.847656 C 3.535156 -29.667969 4.675781 -27.453125 6.472656 -25.832031 C 12.585938 -20.320312 26.191406 -21.636719 26.191406 -12.40625 C 26.191406 -9.171875 24.335938 -5.992188 20.257812 -4.195312 C 16.242188 -2.398438 9.828125 -1.078125 -0.0585938 -1.078125 L -0.0585938 0 C 11.386719 0 18.460938 -1.558594 23.074219 -3.417969 C 29.007812 -5.875 30.628906 -9.769531 30.628906 -13.125 C 30.628906 -16.183594 29.609375 -18.28125 28.050781 -19.960938 C 22.058594 -26.3125 7.191406 -25.054688 7.191406 -34.464844 C 7.191406 -39.019531 11.328125 -42.496094 18.640625 -42.496094 C 20.558594 -42.496094 23.316406 -42.195312 24.632812 -41.777344 Z M 27.152344 -33.445312 "/></g></g></g><g fill="#000000" fill-opacity="1"><g transform="translate(307.387942, 47.395479)"><g><path d="M 5.273438 -21.335938 C 5.453125 -18.160156 5.695312 -15.464844 5.695312 -3.835938 C 5.695312 8.8125 5.335938 10.1875 4.914062 11.027344 C 3.957031 11.566406 2.277344 11.746094 0.238281 11.746094 L -1.199219 11.746094 L -1.199219 12.828125 C 2.457031 12.828125 5.15625 12.585938 7.851562 12.585938 C 10.550781 12.585938 13.246094 12.828125 16.664062 12.828125 L 16.664062 11.746094 L 15.222656 11.746094 C 13.1875 11.746094 11.507812 11.566406 10.550781 11.027344 C 10.1875 10.308594 9.828125 8.691406 9.769531 0 C 21.15625 0 29.308594 -4.675781 29.308594 -13.84375 C 29.308594 -20.796875 24.632812 -28.230469 -0.300781 -28.230469 L -0.300781 -27.152344 C 16.242188 -27.152344 24.453125 -22.417969 24.453125 -13.367188 C 24.453125 -3.355469 16.0625 -1.199219 9.769531 -1.078125 L 9.769531 -3.894531 C 9.769531 -14.445312 9.828125 -15.582031 10.007812 -18.761719 Z M 5.273438 -21.335938 "/></g></g></g><g fill="#000000" fill-opacity="1"><g transform="translate(339.21209, 47.395479)"><g><path d="M 10.847656 -26.671875 C 12.347656 -27.273438 14.023438 -27.632812 15.644531 -27.632812 C 20.558594 -27.632812 23.253906 -24.753906 23.253906 -19 C 23.253906 -16.542969 23.074219 -11.328125 23.074219 -8.453125 C 23.074219 -2.9375 23.375 -0.898438 23.796875 0.839844 C 26.851562 0.359375 30.449219 0 34.105469 0 L 34.105469 -1.078125 L 32.664062 -1.078125 C 30.628906 -1.078125 29.128906 -1.257812 28.171875 -1.796875 C 27.75 -2.636719 27.210938 -4.496094 27.210938 -12.886719 C 27.210938 -14.386719 27.390625 -17.5625 27.390625 -20.257812 C 27.390625 -26.132812 23.914062 -29.007812 16.960938 -29.007812 C 12.648438 -29.007812 8.511719 -27.453125 6.171875 -26.132812 L 7.433594 -18.28125 L 8.453125 -18.28125 Z M 18.820312 -16.125 L 4.613281 -11.808594 L 4.675781 -11.507812 C 7.074219 -10.609375 8.269531 -8.992188 8.269531 -6.652344 C 8.269531 -2.757812 5.632812 -1.078125 -0.898438 -1.078125 L -0.898438 0 C 9.949219 0 12.46875 -3.476562 12.46875 -7.792969 C 12.46875 -9.289062 11.988281 -10.789062 11.089844 -11.988281 L 19.121094 -15.34375 Z M 18.820312 -16.125 "/></g></g></g></svg>